<svg width="169" height="168" viewBox="0 0 169 168" fill="none" xmlns="http://www.w3.org/2000/svg">
<path d="M79.4405 77.8188C92.788 73.0484 113.521 79.8195 113.619 65.6035C113.702 53.5778 101.171 48.7379 89.3578 45.8909C66.8931 40.4768 37.6083 64.9384 47.32 85.9021C51.9328 95.8591 55.4073 107.494 65.5759 111.699C80.2235 117.757 96.3919 110.625 109.441 102.195C130.311 88.7106 128.171 57.4527 111.636 38.1946C98.2722 22.6304 100.831 51.9388 81.0421 56.1254C55.5573 61.5172 18.7942 48.4339 19.7799 74.4892C20.529 94.2888 20.8869 111.505 46.6139 118.22C72.3408 124.935 104.787 150.154 126.14 128.016C153.037 100.131 73.0297 65.9867 73.0297 65.9867M73.0297 65.9867C73.0297 65.9867 111.181 72.4279 101.979 50.0797C95.2624 33.7685 93.4246 25.2661 81.1645 19.3892C68.9044 13.5123 43.4808 48.7571 38.4317 71.9824C27.1099 124.061 132.856 52.6572 143.057 69.6779C153.259 86.6987 146.641 100.463 136.602 109.454C110.399 132.919 28.8964 93.983 47.6168 64.2155C57.4611 48.562 90.4274 47.5677 73.0297 65.9867ZM73.0297 65.9867C40.9933 99.9036 41.0226 125.431 86.8659 114.747C142.403 101.803 159.513 71.016 113.062 36.4388" stroke="#F4E7DE" stroke-width="4"/>
</svg>
