<svg width="24" height="24" viewBox="0 0 24 24" fill="none" xmlns="http://www.w3.org/2000/svg">
<path d="M12 23.25C18.2132 23.25 23.25 18.2132 23.25 12C23.25 5.7868 18.2132 0.75 12 0.75C5.7868 0.75 0.75 5.7868 0.75 12C0.75 18.2132 5.7868 23.25 12 23.25Z" fill="#EA4C89" fill-opacity="0.2" stroke="#EA4C89" stroke-width="1.5" stroke-linecap="round" stroke-linejoin="round"/>
<path d="M6.63989 2.10999C9.52637 4.29807 11.8665 7.12531 13.4766 10.3698C15.0867 13.6144 15.923 17.1879 15.9199 20.81C15.9199 21.41 15.8966 22 15.8499 22.58" stroke="#EA4C89" stroke-width="1.5" stroke-linecap="round" stroke-linejoin="round"/>
<path d="M20.4001 4.51999C16.0299 8.69491 10.2139 11.017 4.17006 11C3.0458 10.9992 1.92301 10.919 0.810059 10.76" stroke="#EA4C89" stroke-width="1.5" stroke-linecap="round" stroke-linejoin="round"/>
<path d="M3.25 19.07C7.61905 14.8599 13.4526 12.5114 19.52 12.52C20.758 12.5266 21.9941 12.6168 23.22 12.79" stroke="#EA4C89" stroke-width="1.5" stroke-linecap="round" stroke-linejoin="round"/>
</svg>
