<svg width="24" height="24" viewBox="0 0 24 24" fill="none" xmlns="http://www.w3.org/2000/svg">
<g clip-path="url(#clip0)">
<path d="M14.4627 22.5736C14.428 22.5042 14.41 22.4276 14.41 22.35L14.39 18.17C14.4219 17.3402 14.1832 16.5224 13.71 15.84C15.92 15.6 18.24 15.26 18.24 11.45C18.2601 10.4679 17.9021 9.51563 17.24 8.79001C17.5412 7.93575 17.5054 6.99882 17.14 6.17001C17.14 6.17001 16.31 5.89001 14.42 7.17001C12.7839 6.71812 11.056 6.71812 9.41996 7.17001C7.51996 5.90001 6.68996 6.17001 6.68996 6.17001C6.32453 6.99882 6.28877 7.93575 6.58996 8.79001C5.92873 9.51617 5.57087 10.4681 5.58996 11.45C5.58996 15.25 7.90996 15.6 10.11 15.85C9.75486 16.3963 9.50859 17.4871 9.44996 18.136V22.35C9.44996 22.4276 9.43189 22.5042 9.39717 22.5736C9.36246 22.643 9.31206 22.7034 9.24996 22.75C9.18786 22.7966 9.11577 22.8281 9.0394 22.8419C8.96303 22.8558 8.88448 22.8517 8.80996 22.83C6.20556 22.0782 3.96017 20.4114 2.48681 18.136C1.01345 15.8606 0.411199 13.1298 0.790829 10.4458C1.17046 7.76176 2.50644 5.30506 4.55304 3.52756C6.59964 1.75006 9.21923 0.771301 11.93 0.771301C14.6407 0.771301 17.2603 1.75006 19.3069 3.52756C21.3535 5.30506 22.6895 7.76176 23.0691 10.4458C23.4487 13.1298 22.8465 15.8606 21.3731 18.136C19.8997 20.4114 17.6544 22.0782 15.05 22.83C14.9754 22.8517 14.8969 22.8558 14.8205 22.8419C14.7441 22.8281 14.6721 22.7966 14.61 22.75C14.5479 22.7034 14.4975 22.643 14.4627 22.5736Z" fill="#111111" fill-opacity="0.2" stroke="#111111" stroke-width="1.5" stroke-linecap="round" stroke-linejoin="round"/>
</g>
<defs>
<clipPath id="clip0">
<rect width="24" height="24" fill="white"/>
</clipPath>
</defs>
</svg>
