<svg width="40" height="40" viewBox="0 0 40 40" fill="none" xmlns="http://www.w3.org/2000/svg">
<path d="M32.0828 14.1187C31.6833 13.9822 31.281 13.8551 30.8758 13.7374C30.943 13.464 31.0049 13.189 31.0617 12.9124C31.9758 8.46709 31.3781 4.88584 29.3383 3.70694C27.3852 2.57569 24.182 3.75459 20.9508 6.57334C20.6331 6.85147 20.3219 7.13793 20.0172 7.43272C19.8141 7.23689 19.6057 7.04522 19.3922 6.85772C16.0055 3.84366 12.6109 2.57413 10.5734 3.75694C8.62031 4.89053 8.03984 8.25694 8.8625 12.4702C8.94479 12.8869 9.03724 13.3017 9.13984 13.7147C8.67295 13.8471 8.20999 13.993 7.75156 14.1522C3.78594 15.539 1.25 17.7132 1.25 19.9679C1.25 22.2976 3.97187 24.6335 8.10703 26.0499C8.44245 26.164 8.78099 26.27 9.12266 26.3679C9.01172 26.8101 8.91354 27.2572 8.82813 27.7093C8.04688 31.8499 8.65625 35.1366 10.6055 36.2632C12.6188 37.4265 15.9961 36.2312 19.2883 33.3483C19.5487 33.1202 19.8091 32.8793 20.0695 32.6257C20.3987 32.9439 20.7372 33.2528 21.0852 33.5522C24.2727 36.3007 27.4203 37.4108 29.3664 36.2812C31.3781 35.114 32.032 31.5827 31.1828 27.2866C31.1177 26.9585 31.0427 26.6236 30.9578 26.2819C31.1953 26.2116 31.4279 26.139 31.6555 26.064C35.9523 24.6366 38.7516 22.3288 38.7516 19.9702C38.75 17.7046 36.1328 15.5163 32.0828 14.1187ZM22.0047 7.78428C24.7727 5.36944 27.3602 4.41631 28.5398 5.09756C29.7953 5.82334 30.2836 8.74991 29.4945 12.5882C29.4424 12.8382 29.3862 13.0874 29.3258 13.3358C27.6739 12.9601 25.9989 12.6949 24.3117 12.5421C23.3457 11.1506 22.2868 9.82596 21.1422 8.57725C21.4224 8.30538 21.7094 8.04105 22.0031 7.78428H22.0047ZM12.3227 21.8944C12.6617 22.5507 13.0161 23.1989 13.3859 23.839C13.7625 24.4921 14.1549 25.1356 14.5633 25.7694C13.4024 25.6432 12.2488 25.4573 11.107 25.2124C11.4383 24.1405 11.8461 23.0272 12.3227 21.8944ZM12.3227 18.1187C11.8539 17.0101 11.457 15.9194 11.1313 14.8663C12.2016 14.6265 13.3422 14.4304 14.5313 14.2819C14.1328 14.9038 13.7495 15.5348 13.3813 16.1749C13.013 16.815 12.6594 17.4629 12.3203 18.1187H12.3227ZM13.1742 20.0069C13.668 18.9772 14.1997 17.9674 14.7695 16.9772C15.3388 15.9877 15.9448 15.0207 16.5875 14.0765C17.7031 13.9921 18.8469 13.9476 20.0023 13.9476C21.1578 13.9476 22.3086 13.9921 23.4234 14.0772C24.0594 15.0194 24.6617 15.983 25.2305 16.9679C25.7992 17.9528 26.338 18.958 26.8469 19.9835C26.3448 21.0168 25.8073 22.0309 25.2344 23.0257C24.6661 24.0153 24.0672 24.9851 23.4375 25.9351C22.3242 26.0132 21.1719 26.0562 20 26.0562C18.8281 26.0562 17.6977 26.0194 16.6047 25.9483C15.9573 25.0009 15.3464 24.0299 14.7719 23.0351C14.1974 22.0403 13.6641 21.0309 13.1719 20.0069H13.1742ZM26.6211 23.828C26.9987 23.1728 27.3612 22.509 27.7086 21.8366C28.1848 22.9164 28.6052 24.0199 28.968 25.1429C27.8128 25.403 26.6448 25.6025 25.4688 25.7405C25.8656 25.1108 26.2497 24.4733 26.6211 23.828ZM27.693 18.1194C27.3471 17.4606 26.9875 16.8095 26.6141 16.1663C26.2495 15.5319 25.8695 14.9054 25.4742 14.2866C26.6703 14.4382 27.818 14.6397 28.8938 14.8858C28.5479 15.9831 28.1471 17.0624 27.693 18.1194ZM20.018 9.72491C20.7981 10.5773 21.5347 11.4686 22.225 12.3952C20.7484 12.3249 19.2708 12.3249 17.7922 12.3952C18.5211 11.4312 19.2672 10.5366 20.018 9.72491ZM11.3797 5.14522C12.6344 4.41709 15.4086 5.45772 18.3328 8.05694C18.5195 8.22334 18.7078 8.39756 18.8953 8.57803C17.7448 9.82656 16.6784 11.15 15.7031 12.5397C14.0197 12.6914 12.348 12.9524 10.6984 13.321C10.6031 12.9377 10.5172 12.5517 10.4406 12.1632C9.73359 8.55147 10.2016 5.82881 11.3797 5.14522ZM9.55078 24.821C9.23828 24.7319 8.92969 24.6353 8.625 24.5312C6.79688 23.9062 5.28672 23.0905 4.25 22.2022C3.32188 21.4062 2.85156 20.6116 2.85156 19.9679C2.85156 18.5999 4.8875 16.8546 8.28281 15.671C8.70938 15.5226 9.13958 15.3869 9.57344 15.264C10.0777 16.8845 10.6884 18.47 11.4016 20.0101C10.6799 21.5714 10.0616 23.1785 9.55078 24.821ZM18.2328 32.139C16.7773 33.414 15.3195 34.3179 14.0344 34.7733C12.8797 35.1819 11.9602 35.1937 11.4047 34.8726C10.2219 34.189 9.72969 31.5491 10.4008 28.0085C10.4805 27.5918 10.5716 27.1752 10.6742 26.7585C12.3403 27.1174 14.0288 27.3625 15.7281 27.4921C16.7129 28.889 17.7882 30.22 18.9469 31.4765C18.7141 31.7054 18.4758 31.9257 18.2328 32.139ZM20.0625 30.3249C19.3031 29.5038 18.5453 28.5952 17.8063 27.6187C18.5245 27.6468 19.2557 27.6608 20 27.6608C20.7641 27.6608 21.5203 27.6444 22.2656 27.6108C21.5778 28.5524 20.8425 29.4582 20.0625 30.3249ZM29.7906 32.5585C29.5672 33.7647 29.118 34.5694 28.5625 34.8913C27.3805 35.5772 24.8531 34.6858 22.1281 32.3351C21.8156 32.0663 21.5031 31.778 21.1852 31.4757C22.3213 30.2143 23.3713 28.878 24.3281 27.4757C26.0369 27.3309 27.7336 27.0686 29.4063 26.6905C29.4828 26.9999 29.5505 27.303 29.6094 27.5999C29.9852 29.4983 30.0391 31.2155 29.7906 32.5585ZM31.15 24.5397C30.9453 24.6077 30.7344 24.6733 30.5203 24.7374C29.9958 23.1092 29.3613 21.5186 28.6211 19.9765C29.3335 18.4549 29.9432 16.8873 30.4461 15.2843C30.8297 15.396 31.2023 15.5132 31.5609 15.6374C35.0313 16.8343 37.1484 18.6062 37.1484 19.9679C37.1484 21.421 34.8617 23.3069 31.15 24.5397Z" fill="#61DAFB"/>
<path d="M19.9999 23.3241C20.6648 23.3262 21.3153 23.1311 21.8692 22.7632C22.4231 22.3954 22.8554 21.8715 23.1113 21.2579C23.3673 20.6442 23.4353 19.9684 23.307 19.3161C23.1786 18.6637 22.8595 18.0641 22.3901 17.5932C21.9207 17.1223 21.3222 16.8012 20.6702 16.6707C20.0183 16.5402 19.3423 16.6061 18.7278 16.86C18.1133 17.114 17.588 17.5445 17.2184 18.0972C16.8487 18.6499 16.6514 19.2998 16.6514 19.9647C16.6505 20.4052 16.7364 20.8416 16.9042 21.2488C17.072 21.6561 17.3185 22.0263 17.6294 22.3383C17.9404 22.6503 18.3098 22.898 18.7166 23.0671C19.1233 23.2362 19.5594 23.3236 19.9999 23.3241Z" fill="#61DAFB"/>
</svg>
