<svg width="54" height="40" viewBox="0 0 54 40" fill="none" xmlns="http://www.w3.org/2000/svg">
<g clip-path="url(#clip0)">
<path d="M46.4695 22.9795C44.5816 22.9899 42.9469 23.4378 41.5758 24.1045C41.0695 23.1149 40.5633 22.2503 40.4789 21.6045C40.384 20.8545 40.268 20.3962 40.384 19.5003C40.5 18.6045 41.0273 17.3337 41.0273 17.2295C41.0168 17.1357 40.9113 16.6774 39.825 16.667C38.7387 16.6566 37.8 16.8753 37.6945 17.1566C37.5891 17.4378 37.3781 18.0837 37.241 18.7503C37.0512 19.7295 35.0684 23.1982 33.9398 25.0212C33.5707 24.3128 33.2543 23.6878 33.191 23.1878C33.0961 22.4378 32.9801 21.9795 33.0961 21.0837C33.2121 20.1878 33.7394 18.917 33.7394 18.8128C33.7289 18.7191 33.6234 18.2607 32.5371 18.2503C31.4508 18.2399 30.5121 18.4587 30.4066 18.7399C30.3012 19.0212 30.1852 19.6878 29.9531 20.3337C29.7316 20.9795 27.0949 26.7712 26.4094 28.2816C26.0613 29.0524 25.7555 29.667 25.534 30.0837C25.3125 30.5003 25.5234 30.1149 25.5023 30.1566C25.3125 30.5107 25.207 30.7087 25.207 30.7087V30.7191C25.0594 30.9795 24.9012 31.2295 24.8273 31.2295C24.7746 31.2295 24.6691 30.5316 24.8484 29.5732C25.2387 27.5628 26.1879 24.4274 26.1773 24.3128C26.1773 24.2607 26.3566 23.7087 25.5656 23.4274C24.7957 23.1462 24.5215 23.6149 24.4582 23.6149C24.3949 23.6149 24.3422 23.7816 24.3422 23.7816C24.3422 23.7816 25.1965 20.2503 22.7074 20.2503C21.1465 20.2503 18.9949 21.9274 17.9297 23.4587C17.2547 23.8232 15.8203 24.5941 14.3016 25.417C13.7215 25.7295 13.1203 26.0628 12.5508 26.3649L12.4348 26.2399C9.41835 23.0628 3.83905 20.8128 4.07109 16.542C4.15546 14.9899 4.7039 10.8962 14.7867 5.93783C23.0449 1.87533 29.6578 2.98991 30.8074 5.46908C32.4422 9.01074 27.2742 15.5941 18.6891 16.542C15.4195 16.9066 13.7004 15.6566 13.268 15.1878C12.8144 14.6982 12.7512 14.6774 12.5824 14.7712C12.3082 14.917 12.4769 15.3545 12.5824 15.6149C12.8355 16.2712 13.8902 17.4378 15.6832 18.0212C17.2547 18.5316 21.0937 18.8128 25.7344 17.042C30.934 15.0524 34.9945 9.53158 33.8027 4.91699C32.5898 0.219077 24.7008 -1.32259 17.2441 1.29199C12.8039 2.85449 7.99452 5.29199 4.53515 8.48991C0.421867 12.2816 -0.232039 15.5941 0.0421795 16.9691C1.00195 21.8753 7.84687 25.0732 10.5891 27.4378C10.4519 27.5107 10.3254 27.5837 10.2094 27.6462C8.83827 28.3128 3.61757 31.0107 2.30976 33.8649C0.833195 37.0941 2.54179 39.417 3.68085 39.7295C7.20351 40.6982 10.8105 38.9587 12.7617 36.0941C14.7023 33.2295 14.4703 29.5107 13.5738 27.8128L13.5422 27.7503L14.618 27.1253C15.3141 26.7191 15.9996 26.3441 16.6008 26.0212C16.2633 26.9274 16.0207 28.0003 15.8941 29.5628C15.7465 31.3962 16.5059 33.7712 17.5078 34.7087C17.9508 35.1149 18.4781 35.1253 18.8051 35.1253C19.9652 35.1253 20.4926 34.1774 21.0726 33.042C21.7898 31.6566 22.4226 30.0524 22.4226 30.0524C22.4226 30.0524 21.6316 34.3962 23.7937 34.3962C24.5848 34.3962 25.3758 33.3857 25.7344 32.8649V32.8753C25.7344 32.8753 25.7555 32.8441 25.7977 32.7712C25.882 32.6462 25.9242 32.5732 25.9242 32.5732V32.5524C26.2406 32.0107 26.9473 30.7712 28.0019 28.7191C29.3625 26.0732 30.6703 22.7607 30.6703 22.7607C30.6703 22.7607 30.7969 23.5732 31.1871 24.9066C31.4191 25.6982 31.9254 26.5628 32.3156 27.4066C31.9992 27.8441 31.8094 28.0941 31.8094 28.0941L31.8199 28.1045C31.5668 28.4378 31.282 28.792 30.9867 29.1462C29.9109 30.417 28.6242 31.8649 28.4555 32.2816C28.2551 32.7712 28.2973 33.1357 28.6875 33.4274C28.9723 33.6357 29.4785 33.6774 30.0164 33.6357C30.9867 33.5732 31.6617 33.3337 31.9992 33.1878C32.5266 33.0003 33.1277 32.7191 33.7078 32.3024C34.7625 31.5316 35.4059 30.4378 35.3426 28.9795C35.3109 28.1774 35.0473 27.3857 34.7203 26.6357C34.8152 26.5003 34.9101 26.3649 35.0051 26.2191C36.6715 23.8128 37.9582 21.167 37.9582 21.167C37.9582 21.167 38.0848 21.9795 38.475 23.3128C38.6754 23.9899 39.0762 24.7295 39.4348 25.4587C37.8738 26.7191 36.893 28.1774 36.5555 29.1357C35.9332 30.9066 36.4184 31.7087 37.3359 31.8962C37.7473 31.9795 38.3379 31.792 38.7809 31.6045C39.3293 31.4274 39.9937 31.1253 40.6055 30.6774C41.6602 29.9066 42.6727 28.8337 42.6199 27.3857C42.5883 26.7191 42.409 26.0628 42.1664 25.4378C43.4953 24.8962 45.2144 24.5837 47.3977 24.8441C52.091 25.3857 53.0191 28.2816 52.8398 29.4899C52.6605 30.6982 51.6797 31.3649 51.3527 31.5732C51.0258 31.7712 50.9203 31.8441 50.952 31.9899C50.9941 32.2087 51.1418 32.1982 51.4266 32.1566C51.8168 32.0941 53.8945 31.167 53.9789 28.9378C54.1055 26.0732 51.3527 22.9482 46.4695 22.9795ZM10.2726 35.0316C8.72226 36.7087 6.53906 37.3441 5.61093 36.8024C4.60898 36.2295 4.99921 33.7607 6.9082 31.9795C8.06835 30.8962 9.57655 29.8962 10.568 29.2816C10.7894 29.1462 11.1269 28.9482 11.5277 28.7087C11.591 28.667 11.6332 28.6462 11.6332 28.6462C11.707 28.6045 11.7914 28.5524 11.8758 28.5003C12.5824 31.042 11.9074 33.2712 10.2726 35.0316ZM21.6105 27.417C21.0726 28.7191 19.9336 32.0628 19.248 31.8753C18.6574 31.7191 18.2988 29.1878 19.132 26.6878C19.5539 25.4274 20.4504 23.9274 20.9777 23.3441C21.832 22.4066 22.7601 22.0941 22.9922 22.4795C23.2664 22.9795 21.948 26.6045 21.6105 27.417ZM30.9656 31.8337C30.7336 31.9482 30.5226 32.0316 30.4277 31.9691C30.3539 31.9274 30.5226 31.7712 30.5226 31.7712C30.5226 31.7712 31.6934 30.5316 32.1574 29.9587C32.4211 29.6253 32.7375 29.2399 33.075 28.8024V28.9274C33.075 30.4274 31.6195 31.4274 30.9656 31.8337ZM38.1797 30.2087C38.0109 30.0837 38.032 29.6982 38.6016 28.4899C38.823 28.0107 39.3293 27.2087 40.2047 26.4482C40.3102 26.7607 40.3734 27.0628 40.3629 27.3441C40.3523 29.2191 39.0023 29.917 38.1797 30.2087Z" fill="#CF649A"/>
</g>
<defs>
<clipPath id="clip0">
<rect width="54" height="40" fill="white"/>
</clipPath>
</defs>
</svg>
