<svg xmlns="http://www.w3.org/2000/svg" width="24" height="24" viewBox="0 0 24 24"><title>dribbble</title><g class="nc-icon-wrapper"><path fill-rule="evenodd" d="M6.37 19.022A8.962 8.962 0 0 0 12 21c1.214 0 2.371-.24 3.428-.676-.36-2.16-1.017-4.39-1.974-6.69-2.687.83-5.04 2.623-7.084 5.388zM4.945 17.59c2.207-2.901 4.777-4.836 7.688-5.793a43.357 43.357 0 0 0-.589-1.185c-.517.138-1.053.257-1.607.358-2.23.408-4.164.487-7.3.442l-.118-.001a8.962 8.962 0 0 0 1.926 6.18zM3.377 9.415c2.888.036 4.683-.044 6.7-.413.336-.062.663-.13.98-.205A58.522 58.522 0 0 0 7.952 3.96a9.024 9.024 0 0 0-4.574 5.455zm6.519-6.168a59.077 59.077 0 0 1 3.12 4.95c1.917-.742 3.405-1.843 4.418-3.372A8.96 8.96 0 0 0 12 3c-.725 0-1.43.086-2.104.247zM18.9 6.223c-1.207 1.692-2.876 2.917-4.936 3.75.225.446.441.89.647 1.332 1.986-.341 4.114-.27 6.376.218a8.96 8.96 0 0 0-2.087-5.3zm1.967 7.323c-1.934-.45-3.741-.565-5.43-.344.842 2.075 1.454 4.105 1.837 6.091a9 9 0 0 0 3.593-5.747zM12 23C5.925 23 1 18.075 1 12S5.925 1 12 1s11 4.925 11 11-4.925 11-11 11z"/></g></svg>