<svg width="40" height="40" viewBox="0 0 40 40" fill="none" xmlns="http://www.w3.org/2000/svg">
<g clip-path="url(#clip0)">
<path d="M13.3385 40C15.1067 40 16.8023 39.2976 18.0526 38.0474C19.3028 36.7972 20.0052 35.1015 20.0052 33.3334V26.6667H13.3385C11.5704 26.6667 9.87474 27.3691 8.6245 28.6193C7.37425 29.8696 6.67188 31.5652 6.67188 33.3334C6.67188 35.1015 7.37425 36.7972 8.6245 38.0474C9.87474 39.2976 11.5704 40 13.3385 40Z" fill="#0ACF83"/>
<path d="M6.67188 20C6.67188 18.2319 7.37425 16.5362 8.6245 15.2859C9.87474 14.0357 11.5704 13.3333 13.3385 13.3333H20.0052V26.6666H13.3385C11.5704 26.6666 9.87474 25.9643 8.6245 24.714C7.37425 23.4638 6.67188 21.7681 6.67188 20Z" fill="#A259FF"/>
<path d="M6.67188 6.66667C6.67187 4.89946 7.37354 3.20455 8.62265 1.95446C9.87177 0.704369 11.5661 0.00138063 13.3333 0L20 0V13.3333H13.3385C11.5704 13.3333 9.87474 12.631 8.6245 11.3807C7.37425 10.1305 6.67188 8.43478 6.67188 6.66667Z" fill="#F24E1E"/>
<path d="M20.0051 0H26.6718C28.4399 0 30.1356 0.702379 31.3858 1.95262C32.6361 3.20286 33.3385 4.89856 33.3385 6.66667C33.3385 8.43478 32.6361 10.1305 31.3858 11.3807C30.1356 12.631 28.4399 13.3333 26.6718 13.3333H20.0051V0Z" fill="#FF7262"/>
<path d="M33.3385 20C33.3385 21.7681 32.6361 23.4638 31.3858 24.714C30.1356 25.9643 28.4399 26.6666 26.6718 26.6666C24.9037 26.6666 23.208 25.9643 21.9577 24.714C20.7075 23.4638 20.0051 21.7681 20.0051 20C20.0051 18.2319 20.7075 16.5362 21.9577 15.2859C23.208 14.0357 24.9037 13.3333 26.6718 13.3333C28.4399 13.3333 30.1356 14.0357 31.3858 15.2859C32.6361 16.5362 33.3385 18.2319 33.3385 20Z" fill="#1ABCFE"/>
</g>
<defs>
<clipPath id="clip0">
<rect width="40" height="40" fill="white"/>
</clipPath>
</defs>
</svg>
