<svg width="40" height="40" viewBox="0 0 40 40" fill="none" xmlns="http://www.w3.org/2000/svg">
<path d="M26.2398 26.16C27.3998 26.04 28.2798 25.04 28.2398 23.84C28.1998 22.64 27.1998 21.68 25.9998 21.68H25.9198C24.6798 21.72 23.7198 22.76 23.7598 24C23.7998 24.6 24.0398 25.12 24.3998 25.48C23.0398 28.16 20.9598 30.12 17.8398 31.76C15.7198 32.88 13.5198 33.28 11.3198 33C9.51981 32.76 8.11981 31.96 7.23981 30.64C5.95981 28.68 5.83981 26.56 6.91981 24.44C7.67981 22.92 8.87981 21.8 9.63981 21.24C9.47981 20.72 9.23981 19.84 9.11981 19.2C3.31981 23.4 3.91981 29.08 5.67981 31.76C6.99981 33.76 9.67981 35 12.6398 35C13.4398 35 14.2398 34.92 15.0398 34.72C20.1598 33.72 24.0398 30.68 26.2398 26.16Z" fill="#764ABC"/>
<path d="M33.2799 21.2C30.2399 17.64 25.7599 15.68 20.6399 15.68H19.9999C19.6399 14.96 18.8799 14.48 18.0399 14.48H17.9599C16.7199 14.52 15.7599 15.56 15.7999 16.8C15.8399 18 16.8399 18.96 18.0399 18.96H18.1199C18.9999 18.92 19.7599 18.36 20.0799 17.6H20.7999C23.8399 17.6 26.7199 18.48 29.3199 20.2C31.3199 21.52 32.7599 23.24 33.5599 25.32C34.2399 27 34.1999 28.64 33.4799 30.04C32.3599 32.16 30.4799 33.32 27.9999 33.32C26.3999 33.32 24.8799 32.84 24.0799 32.48C23.6399 32.88 22.8399 33.52 22.2799 33.92C23.9999 34.72 25.7599 35.16 27.4399 35.16C31.2799 35.16 34.1199 33.04 35.1999 30.92C36.3599 28.6 36.2799 24.6 33.2799 21.2Z" fill="#764ABC"/>
<path d="M12.9599 26.8399C12.9999 28.0399 13.9999 28.9999 15.1999 28.9999H15.2799C16.5199 28.9599 17.4799 27.9199 17.4399 26.6799C17.3999 25.4799 16.3999 24.5199 15.1999 24.5199H15.1199C15.0399 24.5199 14.9199 24.5199 14.8399 24.5599C13.1999 21.8399 12.5199 18.8799 12.7599 15.6799C12.9199 13.2799 13.7199 11.1999 15.1199 9.47995C16.2799 7.99995 18.5199 7.27995 20.0399 7.23995C24.2799 7.15995 26.0799 12.4399 26.1999 14.5599C26.7199 14.6799 27.5999 14.9599 28.1999 15.1599C27.7199 8.67995 23.7199 5.31995 19.8799 5.31995C16.2799 5.31995 12.9599 7.91995 11.6399 11.7599C9.79991 16.8799 10.9999 21.7999 13.2399 25.6799C13.0399 25.9599 12.9199 26.3999 12.9599 26.8399Z" fill="#764ABC"/>
</svg>
