<svg width="45" height="40" viewBox="0 0 45 40" fill="none" xmlns="http://www.w3.org/2000/svg">
<g clip-path="url(#clip0)">
<path d="M9.64286 1.31714L22.0986 0L34.5543 1.31714L44.1971 14.2857L22.0986 40L0 14.2857L9.64286 1.31714Z" fill="#FDB300"/>
<path d="M8.95143 14.2857L22.0986 40L0 14.2857H8.95143Z" fill="#EA6C00"/>
<path d="M35.2457 14.2857L22.0972 40L44.1957 14.2857H35.2457Z" fill="#EA6C00"/>
<path d="M8.95142 14.2857H35.2457L22.0986 40L8.95142 14.2857Z" fill="#FDAD00"/>
<path d="M22.0986 0L9.64284 1.31714L8.95142 14.2857L22.0986 0Z" fill="#FDD231"/>
<path d="M22.0972 0L34.5529 1.31714L35.2443 14.2857L22.0972 0Z" fill="#FDD231"/>
<path d="M44.1957 14.2857L34.5529 1.31714L35.2457 14.2857H44.1957ZM0 14.2857L9.64286 1.31714L8.95143 14.2857H0Z" fill="#FDAD00"/>
<path d="M22.0986 0L8.95142 14.2857H35.2457L22.0986 0Z" fill="#FEEEB7"/>
</g>
<defs>
<clipPath id="clip0">
<rect width="44.2857" height="40" fill="white"/>
</clipPath>
</defs>
</svg>
